<svg width="17" height="17" viewBox="0 0 17 17" fill="none" xmlns="http://www.w3.org/2000/svg">
<path d="M8.43713 12.2C8.3038 12.2 8.1788 12.179 8.06213 12.137C7.94547 12.0957 7.83713 12.025 7.73713 11.925L4.13713 8.325C3.9538 8.14167 3.86213 7.90833 3.86213 7.625C3.86213 7.34167 3.9538 7.10833 4.13713 6.925C4.32047 6.74167 4.5578 6.64567 4.84913 6.637C5.14113 6.629 5.3788 6.71667 5.56213 6.9L7.43713 8.775V1.625C7.43713 1.34167 7.53313 1.104 7.72513 0.912C7.91647 0.720667 8.1538 0.625 8.43713 0.625C8.72047 0.625 8.95813 0.720667 9.15013 0.912C9.34147 1.104 9.43713 1.34167 9.43713 1.625V8.775L11.3121 6.9C11.4955 6.71667 11.7331 6.629 12.0251 6.637C12.3165 6.64567 12.5538 6.74167 12.7371 6.925C12.9205 7.10833 13.0121 7.34167 13.0121 7.625C13.0121 7.90833 12.9205 8.14167 12.7371 8.325L9.13713 11.925C9.03713 12.025 8.9288 12.0957 8.81213 12.137C8.69547 12.179 8.57047 12.2 8.43713 12.2ZM2.43713 16.625C1.88713 16.625 1.41647 16.4293 1.02513 16.038C0.633134 15.646 0.437134 15.175 0.437134 14.625V12.625C0.437134 12.3417 0.532801 12.104 0.724134 11.912C0.916134 11.7207 1.1538 11.625 1.43713 11.625C1.72047 11.625 1.95813 11.7207 2.15013 11.912C2.34147 12.104 2.43713 12.3417 2.43713 12.625V14.625H14.4371V12.625C14.4371 12.3417 14.5331 12.104 14.7251 11.912C14.9165 11.7207 15.1538 11.625 15.4371 11.625C15.7205 11.625 15.9578 11.7207 16.1491 11.912C16.3411 12.104 16.4371 12.3417 16.4371 12.625V14.625C16.4371 15.175 16.2415 15.646 15.8501 16.038C15.4581 16.4293 14.9871 16.625 14.4371 16.625H2.43713Z" fill="#262626"/>
</svg>
