<svg width="17" height="16" viewBox="0 0 17 16" fill="none" xmlns="http://www.w3.org/2000/svg">
<path d="M11.0493 13.5408C11.6891 13.7266 12.3519 13.8205 13.0181 13.8198C14.0894 13.8214 15.1468 13.5771 16.1088 13.1058C16.1373 12.4336 15.9458 11.7704 15.5634 11.2168C15.181 10.6632 14.6286 10.2493 13.9899 10.038C13.3511 9.82656 12.6608 9.82917 12.0237 10.0454C11.3866 10.2616 10.8373 10.6796 10.4591 11.2361M11.0493 13.5408V13.5386C11.0493 12.7038 10.8356 11.9186 10.4598 11.2361M11.0493 13.5408V13.6203C9.60594 14.4896 7.95229 14.9477 6.26733 14.9448C4.51908 14.9448 2.88333 14.4611 1.48683 13.6203L1.48608 13.5386C1.48551 12.4769 1.83829 11.4453 2.48882 10.6063C3.13935 9.76727 4.05061 9.16865 5.07895 8.90477C6.10729 8.6409 7.1942 8.72679 8.16833 9.14889C9.14246 9.571 9.9484 10.3053 10.4591 11.2361M8.79933 3.97607C8.79933 4.6474 8.53265 5.29124 8.05795 5.76594C7.58325 6.24064 6.93941 6.50732 6.26808 6.50732C5.59676 6.50732 4.95292 6.24064 4.47822 5.76594C4.00352 5.29124 3.73683 4.6474 3.73683 3.97607C3.73683 3.30474 4.00352 2.66091 4.47822 2.18621C4.95292 1.71151 5.59676 1.44482 6.26808 1.44482C6.93941 1.44482 7.58325 1.71151 8.05795 2.18621C8.53265 2.66091 8.79933 3.30474 8.79933 3.97607V3.97607ZM14.9868 5.66357C14.9868 6.18572 14.7794 6.68648 14.4102 7.05569C14.041 7.4249 13.5402 7.63232 13.0181 7.63232C12.4959 7.63232 11.9952 7.4249 11.626 7.05569C11.2568 6.68648 11.0493 6.18572 11.0493 5.66357C11.0493 5.14143 11.2568 4.64067 11.626 4.27146C11.9952 3.90225 12.4959 3.69482 13.0181 3.69482C13.5402 3.69482 14.041 3.90225 14.4102 4.27146C14.7794 4.64067 14.9868 5.14143 14.9868 5.66357V5.66357Z" stroke="#262626" stroke-linecap="round" stroke-linejoin="round"/>
</svg>
