<svg width="14" height="19" viewBox="0 0 14 19" fill="none" xmlns="http://www.w3.org/2000/svg">
<path fill-rule="evenodd" clip-rule="evenodd" d="M8.73678 1.34937C8.5876 1.34937 8.44452 1.2901 8.33903 1.18461C8.23354 1.07912 8.17428 0.93605 8.17428 0.786865C8.17428 0.637681 8.23354 0.494607 8.33903 0.389118C8.44452 0.283628 8.5876 0.224365 8.73678 0.224365L13.2368 0.224365C13.386 0.224365 13.529 0.283628 13.6345 0.389118C13.74 0.494607 13.7993 0.637681 13.7993 0.786865V5.28687C13.7993 5.43605 13.74 5.57912 13.6345 5.68461C13.529 5.7901 13.386 5.84937 13.2368 5.84937C13.0876 5.84937 12.9445 5.7901 12.839 5.68461C12.7335 5.57912 12.6743 5.43605 12.6743 5.28687V2.14474L8.79303 6.02599C9.12745 6.6696 9.30135 7.38451 9.2999 8.10982C9.29845 8.83512 9.1217 9.54933 8.78471 10.1916C8.44772 10.8339 7.96048 11.3852 7.36448 11.7985C6.76849 12.2119 6.08141 12.4751 5.36178 12.5656V14.8494H7.04928C7.19846 14.8494 7.34154 14.9086 7.44703 15.0141C7.55252 15.1196 7.61178 15.2627 7.61178 15.4119C7.61178 15.561 7.55252 15.7041 7.44703 15.8096C7.34154 15.9151 7.19846 15.9744 7.04928 15.9744H5.36178V17.6619C5.36178 17.8111 5.30252 17.9541 5.19703 18.0596C5.09154 18.1651 4.94846 18.2244 4.79928 18.2244C4.6501 18.2244 4.50702 18.1651 4.40153 18.0596C4.29604 17.9541 4.23678 17.8111 4.23678 17.6619V15.9744H2.54928C2.4001 15.9744 2.25702 15.9151 2.15153 15.8096C2.04604 15.7041 1.98678 15.561 1.98678 15.4119C1.98678 15.2627 2.04604 15.1196 2.15153 15.0141C2.25702 14.9086 2.4001 14.8494 2.54928 14.8494H4.23678V12.5656C3.5166 12.4747 2.82911 12.2109 2.23297 11.7967C1.63682 11.3825 1.14973 10.8303 0.813231 10.1871C0.476737 9.54387 0.300836 8.82882 0.300537 8.10292C0.300239 7.37702 0.475551 6.66182 0.811515 6.01835C1.14748 5.37488 1.63412 4.82223 2.22993 4.40757C2.82573 3.9929 3.513 3.72852 4.23311 3.63699C4.95321 3.54545 5.68477 3.62948 6.36537 3.88191C7.04596 4.13433 7.65539 4.54766 8.14166 5.08662L11.8789 1.34937H8.73678ZM7.61516 6.23862C7.12151 5.4918 6.3514 4.97167 5.47426 4.79266C4.59712 4.61364 3.68478 4.7904 2.93797 5.28405C2.19115 5.7777 1.67102 6.54781 1.49201 7.42495C1.31299 8.30209 1.48976 9.21442 1.98341 9.96124C2.47721 10.7081 3.24745 11.2281 4.1247 11.407C5.00195 11.5859 5.91434 11.409 6.66116 10.9152C7.40797 10.4214 7.92804 9.65119 8.10695 8.77394C8.28586 7.8967 8.10896 6.98431 7.61516 6.23749V6.23862Z" fill="#262626"/>
</svg>
