<svg width="19" height="19" viewBox="0 0 19 19" fill="none" xmlns="http://www.w3.org/2000/svg">
<g clip-path="url(#clip0_259_206)">
<path d="M5.29932 16.6158C4.88682 16.6158 4.53382 16.4691 4.24032 16.1756C3.94632 15.8816 3.79932 15.5283 3.79932 15.1158V3.11584C3.79932 2.70334 3.94632 2.35009 4.24032 2.05609C4.53382 1.76259 4.88682 1.61584 5.29932 1.61584H11.2993L15.7993 6.11584V9.11584H14.2993V6.86584H10.5493V3.11584H5.29932V15.1158H9.79932V16.6158H5.29932ZM5.29932 15.1158V3.11584V15.1158ZM14.5243 11.0096L15.3306 11.8158L12.4243 14.7033V15.4908H13.2118L16.1181 12.6033L16.9056 13.3908L13.6806 16.6158H11.2993V14.2346L14.5243 11.0096ZM16.9056 13.3908L14.5243 11.0096L15.6118 9.92209C15.7493 9.78459 15.9243 9.71584 16.1368 9.71584C16.3493 9.71584 16.5243 9.78459 16.6618 9.92209L17.9931 11.2533C18.1306 11.3908 18.1993 11.5658 18.1993 11.7783C18.1993 11.9908 18.1306 12.1658 17.9931 12.3033L16.9056 13.3908Z" fill="#262626"/>
</g>
<defs>
<clipPath id="clip0_259_206">
<rect width="18" height="18" fill="white" transform="translate(0.799316 0.115845)"/>
</clipPath>
</defs>
</svg>
