<svg width="16" height="16" viewBox="0 0 16 16" fill="none" xmlns="http://www.w3.org/2000/svg">
<path d="M2.29932 15.6158C1.88682 15.6158 1.53382 15.4691 1.24032 15.1756C0.946316 14.8816 0.799316 14.5283 0.799316 14.1158V2.11584C0.799316 1.70334 0.946316 1.35009 1.24032 1.05609C1.53382 0.762595 1.88682 0.615845 2.29932 0.615845H8.29932L12.7993 5.11584V8.11584H11.2993V5.86584H7.54932V2.11584H2.29932V14.1158H6.79932V15.6158H2.29932ZM2.29932 14.1158V2.11584V14.1158ZM11.5243 10.0096L12.3306 10.8158L9.42432 13.7033V14.4908H10.2118L13.1181 11.6033L13.9056 12.3908L10.6806 15.6158H8.29932V13.2346L11.5243 10.0096ZM13.9056 12.3908L11.5243 10.0096L12.6118 8.92209C12.7493 8.78459 12.9243 8.71584 13.1368 8.71584C13.3493 8.71584 13.5243 8.78459 13.6618 8.92209L14.9931 10.2533C15.1306 10.3908 15.1993 10.5658 15.1993 10.7783C15.1993 10.9908 15.1306 11.1658 14.9931 11.3033L13.9056 12.3908Z" fill="#262626"/>
</svg>
