<svg width="38" height="38" viewBox="0 0 38 38" fill="none" xmlns="http://www.w3.org/2000/svg">
<circle cx="18.7994" cy="19.1158" r="18.5126" fill="#F2BF3B"/>
<path d="M14.2993 26.6158C13.8868 26.6158 13.5338 26.4691 13.2403 26.1756C12.9463 25.8816 12.7993 25.5283 12.7993 25.1158V13.1158C12.7993 12.7033 12.9463 12.3501 13.2403 12.0561C13.5338 11.7626 13.8868 11.6158 14.2993 11.6158H20.2993L24.7993 16.1158V19.1158H23.2993V16.8658H19.5493V13.1158H14.2993V25.1158H18.7993V26.6158H14.2993ZM14.2993 25.1158V13.1158V25.1158ZM23.5243 21.0096L24.3306 21.8158L21.4243 24.7033V25.4908H22.2118L25.1181 22.6033L25.9056 23.3908L22.6806 26.6158H20.2993V24.2346L23.5243 21.0096ZM25.9056 23.3908L23.5243 21.0096L24.6118 19.9221C24.7493 19.7846 24.9243 19.7158 25.1368 19.7158C25.3493 19.7158 25.5243 19.7846 25.6618 19.9221L26.9931 21.2533C27.1306 21.3908 27.1993 21.5658 27.1993 21.7783C27.1993 21.9908 27.1306 22.1658 26.9931 22.3033L25.9056 23.3908Z" fill="#262626"/>
</svg>
