<svg width="16" height="16" viewBox="0 0 16 16" fill="none" xmlns="http://www.w3.org/2000/svg">
<path d="M6.93178 9.01617C7.85955 9.95735 8.98213 10.684 10.2207 11.1451L11.8962 9.81173C11.9459 9.77752 12.0048 9.7592 12.0651 9.7592C12.1254 9.7592 12.1843 9.77752 12.234 9.81173L15.3451 11.8162C15.4632 11.8872 15.5632 11.9847 15.6372 12.101C15.7111 12.2173 15.757 12.3492 15.7712 12.4862C15.7855 12.6233 15.7676 12.7618 15.7191 12.8908C15.6706 13.0198 15.5928 13.1358 15.4918 13.2295L14.034 14.6695C13.8252 14.8758 13.5686 15.0272 13.2871 15.1102C13.0056 15.1931 12.7079 15.2051 12.4207 15.1451C9.55499 14.5532 6.91362 13.1671 4.79845 11.1451C2.73022 9.10295 1.29901 6.50455 0.678447 3.66506C0.617143 3.38224 0.629938 3.08837 0.715592 2.81194C0.801246 2.53551 0.956854 2.2859 1.16734 2.08729L2.67845 0.629507C2.77196 0.533413 2.886 0.459718 3.01202 0.413942C3.13805 0.368165 3.2728 0.351493 3.40618 0.365174C3.53957 0.378854 3.66813 0.422532 3.78224 0.492938C3.89635 0.563345 3.99306 0.658654 4.06511 0.771729L6.13622 3.84284C6.17195 3.89107 6.19123 3.94949 6.19123 4.00951C6.19123 4.06952 6.17195 4.12795 6.13622 4.17617L4.77178 5.81617C5.24537 7.02992 5.98322 8.12303 6.93178 9.01617Z" fill="#262626"/>
</svg>
