<svg width="16" height="16" viewBox="0 0 16 16" fill="none" xmlns="http://www.w3.org/2000/svg">
<path d="M4.89297 5.87127V5.38688C4.7645 5.38688 4.64129 5.43792 4.55045 5.52876C4.45961 5.6196 4.40858 5.7428 4.40858 5.87127H4.89297ZM4.89297 6.84006L5.23592 7.183L5.37736 7.04059V6.84006H4.89297ZM3.23926 7.12391L2.89631 7.46589L3.23926 7.12391ZM6.83053 13.1371H7.31493V12.9366L7.17348 12.7942L6.83053 13.1371ZM5.86175 12.1684H5.37736V12.3689L5.5188 12.5113L5.86175 12.1684ZM5.86175 10.7152H6.34614V10.5146L6.2047 10.3722L5.86175 10.7152ZM4.89297 9.7464H4.40858V9.94694L4.55002 10.0894L4.89297 9.7464ZM4.89297 8.77762V8.29323C4.7645 8.29323 4.64129 8.34426 4.55045 8.4351C4.45961 8.52594 4.40858 8.64915 4.40858 8.77762H4.89297ZM9.25249 1.02736V2.96493H10.2213V1.02736H9.25249ZM8.7681 3.44932H7.79932V4.4181H8.7681V3.44932ZM5.86175 5.38688H4.89297V6.35566H5.86175V5.38688ZM4.40858 5.87127V6.84006H5.37736V5.87127H4.40858ZM4.55002 6.49711L4.26714 6.78096L4.95206 7.46589L5.23592 7.183L4.55002 6.49711ZM3.58124 6.78096L1.84518 5.04393L1.15928 5.72983L2.89728 7.46589L3.58221 6.78096H3.58124ZM6.34614 4.90249C6.34614 5.03096 6.29511 5.15417 6.20427 5.24501C6.11343 5.33585 5.99022 5.38688 5.86175 5.38688V6.35566C6.24716 6.35566 6.61678 6.20256 6.8893 5.93004C7.16182 5.65752 7.31493 5.2879 7.31493 4.90249H6.34614ZM7.79932 3.44932C7.41391 3.44932 7.04429 3.60242 6.77177 3.87494C6.49924 4.14746 6.34614 4.51708 6.34614 4.90249H7.31493C7.31493 4.77402 7.36596 4.65082 7.4568 4.55997C7.54764 4.46913 7.67085 4.4181 7.79932 4.4181V3.44932ZM4.26714 6.78193C4.22214 6.82704 4.16869 6.86283 4.10984 6.88725C4.05099 6.91167 3.9879 6.92424 3.92419 6.92424C3.86047 6.92424 3.79738 6.91167 3.73853 6.88725C3.67969 6.86283 3.62623 6.82704 3.58124 6.78193L2.89631 7.46589C3.03126 7.60093 3.1915 7.70805 3.36787 7.78114C3.54423 7.85422 3.73327 7.89184 3.92419 7.89184C4.1151 7.89184 4.30414 7.85422 4.48051 7.78114C4.65687 7.70805 4.81711 7.60093 4.95206 7.46589L4.26714 6.78096V6.78193ZM9.25249 2.96493C9.25249 3.09339 9.20146 3.2166 9.11062 3.30744C9.01977 3.39828 8.89657 3.44932 8.7681 3.44932V4.4181C9.1535 4.4181 9.52313 4.265 9.79565 3.99247C10.0682 3.71995 10.2213 3.35033 10.2213 2.96493H9.25249ZM7.31493 14.5903V13.1371H6.34614V14.5903H7.31493ZM7.17348 12.7942L6.2047 11.8254L5.5188 12.5113L6.48758 13.4801L7.17348 12.7942ZM6.34614 12.1684V10.7152H5.37736V12.1684H6.34614ZM6.2047 10.3722L5.23592 9.40345L4.55002 10.0894L5.5188 11.0581L6.2047 10.3722ZM5.37736 9.7464V8.77762H4.40858V9.7464H5.37736ZM4.89297 9.26201H8.7681V8.29323H4.89297V9.26201ZM9.25249 9.7464V10.3926H10.2213V9.7464H9.25249ZM11.0283 12.1684H13.612V11.1996H11.0283V12.1684ZM10.2213 11.3614C10.2213 11.807 10.5826 12.1684 11.0283 12.1684V11.1996C11.1174 11.1996 11.1901 11.2722 11.1901 11.3614H10.2213ZM10.0595 11.1996C10.1486 11.1996 10.2213 11.2722 10.2213 11.3614H11.1901C11.1901 10.7365 10.6844 10.2308 10.0595 10.2308V11.1996ZM9.25249 10.3926C9.25249 10.8382 9.61385 11.1996 10.0595 11.1996V10.2308C10.1486 10.2308 10.2213 10.3035 10.2213 10.3926H9.25249ZM8.7681 9.26201C8.89657 9.26201 9.01977 9.31305 9.11062 9.40389C9.20146 9.49473 9.25249 9.61793 9.25249 9.7464H10.2213C10.2213 9.361 10.0682 8.99138 9.79565 8.71885C9.52313 8.44633 9.1535 8.29323 8.7681 8.29323V9.26201ZM7.79932 14.1059C6.12923 14.1059 4.52754 13.4425 3.3466 12.2616C2.16567 11.0806 1.50223 9.47893 1.50223 7.80884H0.533447C0.533447 9.73587 1.29896 11.584 2.66157 12.9466C4.02419 14.3092 5.87229 15.0747 7.79932 15.0747V14.1059ZM14.0964 7.80884C14.0964 8.63578 13.9335 9.45463 13.6171 10.2186C13.3006 10.9826 12.8368 11.6768 12.252 12.2616C11.6673 12.8463 10.9731 13.3101 10.2091 13.6266C9.44511 13.943 8.62626 14.1059 7.79932 14.1059V15.0747C9.72635 15.0747 11.5744 14.3092 12.9371 12.9466C14.2997 11.584 15.0652 9.73587 15.0652 7.80884H14.0964ZM7.79932 1.51175C8.62626 1.51175 9.44511 1.67463 10.2091 1.99109C10.9731 2.30755 11.6673 2.77139 12.252 3.35613C12.8368 3.94086 13.3006 4.63505 13.6171 5.39905C13.9335 6.16304 14.0964 6.98189 14.0964 7.80884H15.0652C15.0652 5.88181 14.2997 4.03371 12.9371 2.67109C11.5744 1.30848 9.72635 0.542969 7.79932 0.542969V1.51175ZM7.79932 0.542969C5.87229 0.542969 4.02419 1.30848 2.66157 2.67109C1.29896 4.03371 0.533447 5.88181 0.533447 7.80884H1.50223C1.50223 6.13875 2.16567 4.53706 3.3466 3.35613C4.52754 2.17519 6.12923 1.51175 7.79932 1.51175V0.542969Z" fill="#262626"/>
</svg>
