<svg width="35" height="47" viewBox="0 0 35 47" fill="none" xmlns="http://www.w3.org/2000/svg">
<path d="M9.26694 36.6569H25.8294V39.9694H9.26694V36.6569ZM12.5794 43.2819H22.5169V46.5944H12.5794V43.2819ZM17.5482 0.21936C13.1555 0.21936 8.94281 1.96433 5.83673 5.0704C2.73066 8.17648 0.985691 12.3892 0.985691 16.7819C0.873686 19.1889 1.33479 21.5882 2.33106 23.7823C3.32733 25.9764 4.8303 27.9026 6.71632 29.4025C8.37257 30.9428 9.26694 31.8206 9.26694 33.3444H12.5794C12.5794 30.2969 10.741 28.5909 8.95225 26.9512C7.40425 25.7658 6.17053 24.2189 5.35915 22.446C4.54777 20.6731 4.18348 18.7282 4.29819 16.7819C4.29819 13.2677 5.69417 9.89755 8.17903 7.4127C10.6639 4.92784 14.0341 3.53186 17.5482 3.53186C21.0623 3.53186 24.4325 4.92784 26.9174 7.4127C29.4022 9.89755 30.7982 13.2677 30.7982 16.7819C30.911 18.7297 30.5441 20.6754 29.7298 22.4484C28.9155 24.2215 27.6786 25.7676 26.1276 26.9512C24.3554 28.6075 22.5169 30.2637 22.5169 33.3444H25.8294C25.8294 31.8206 26.7073 30.9428 28.3801 29.3859C30.2648 27.8886 31.7671 25.9653 32.7633 23.7741C33.7596 21.5828 34.2214 19.1864 34.1107 16.7819C34.1107 14.6068 33.6823 12.4531 32.8499 10.4437C32.0176 8.43421 30.7976 6.60837 29.2596 5.0704C27.7217 3.53243 25.8958 2.31245 23.8864 1.48011C21.8769 0.647762 19.7232 0.21936 17.5482 0.21936Z" fill="white"/>
</svg>
