<svg width="22" height="22" viewBox="0 0 22 22" fill="none" xmlns="http://www.w3.org/2000/svg">
<path d="M18.8941 2.33477C18.3608 1.84348 16.2025 0.277236 11.3904 0.256241C11.3904 0.256241 5.71746 -0.0838824 2.95449 2.45234C1.41764 3.9892 0.875958 6.24409 0.817171 9.03645C0.758385 11.8288 0.687001 17.0608 5.73006 18.4801H5.73426L5.73006 20.6468C5.73006 20.6468 5.69647 21.5244 6.27594 21.7008C6.97298 21.9191 7.38448 21.2515 8.05213 20.5335C8.41745 20.1387 8.92134 19.5593 9.30345 19.1184C12.7551 19.4081 15.4047 18.7447 15.707 18.6481C16.404 18.4213 20.3469 17.9174 20.9852 12.6854C21.6487 7.28545 20.6661 3.87582 18.8941 2.33477ZM19.4777 12.2907C18.9361 16.6577 15.7406 16.9349 15.1527 17.1238C14.9008 17.2036 12.5703 17.7831 9.64357 17.5941C9.64357 17.5941 7.46007 20.2269 6.77982 20.9114C6.55727 21.1339 6.31373 21.1129 6.31793 20.672C6.31793 20.3823 6.33472 17.0734 6.33472 17.0734C6.33052 17.0734 6.33052 17.0734 6.33472 17.0734C2.06009 15.8893 2.31203 11.4341 2.35822 9.10364C2.40441 6.77317 2.84531 4.8626 4.14702 3.57769C6.48589 1.45717 11.3022 1.7721 11.3022 1.7721C15.3711 1.78889 17.3194 3.01502 17.7729 3.42652C19.272 4.71143 20.0362 7.78514 19.4777 12.2907ZM13.6411 8.89788C13.6579 9.259 13.1162 9.2842 13.0994 8.92308C13.0532 7.99929 12.6207 7.54999 11.7305 7.4996C11.3694 7.47861 11.403 6.93693 11.7599 6.95792C12.9314 7.02091 13.5823 7.69276 13.6411 8.89788ZM14.4935 9.37238C14.5355 7.59198 13.4227 6.1979 11.3106 6.04253C10.9537 6.01734 10.9915 5.47566 11.3484 5.50085C13.7838 5.67721 15.0813 7.35263 15.0352 9.38497C15.031 9.74609 14.4851 9.7293 14.4935 9.37238ZM16.467 9.93505C16.4712 10.2962 15.9254 10.3004 15.9254 9.93925C15.9002 6.51702 13.6201 4.65265 10.8529 4.63165C10.496 4.62745 10.496 4.08997 10.8529 4.08997C13.9476 4.11097 16.4376 6.24828 16.467 9.93505ZM15.9925 14.0543V14.0627C15.539 14.8605 14.6908 15.7423 13.8174 15.461L13.809 15.4484C12.923 15.2007 10.8361 14.1257 9.5176 13.0759C8.83735 12.5385 8.2159 11.9044 7.7372 11.2955C7.3047 10.7539 6.868 10.1114 6.4439 9.33879C5.5495 7.72215 5.35214 6.99991 5.35214 6.99991C5.07081 6.12651 5.94841 5.2783 6.75043 4.82481H6.75883C7.14514 4.62325 7.51465 4.69044 7.7624 4.98857C7.7624 4.98857 8.28308 5.61003 8.50563 5.91656C8.71558 6.2021 8.99692 6.65979 9.14389 6.91593C9.40003 7.37363 9.24046 7.83972 8.98852 8.03288L8.48464 8.43599C8.22849 8.64174 8.26209 9.02386 8.26209 9.02386C8.26209 9.02386 9.00952 11.8498 11.8019 12.5637C11.8019 12.5637 12.184 12.5972 12.3898 12.3411L12.7929 11.8372C12.986 11.5853 13.4521 11.4257 13.9098 11.6819C14.5271 12.0304 15.3123 12.5721 15.833 13.0633C16.1269 13.3027 16.1941 13.668 15.9925 14.0543Z" fill="#6F5DEA"/>
</svg>
