<svg width="20" height="21" viewBox="0 0 20 21" fill="none" xmlns="http://www.w3.org/2000/svg">
<path d="M17.05 3.89865C16.1332 2.97257 15.0412 2.23831 13.8376 1.7387C12.6341 1.23908 11.3431 0.984106 10.04 0.988646C4.57999 0.988646 0.129988 5.43865 0.129988 10.8986C0.129988 12.6486 0.589988 14.3486 1.44999 15.8486L0.0499878 20.9886L5.29999 19.6086C6.74999 20.3986 8.37999 20.8186 10.04 20.8186C15.5 20.8186 19.95 16.3686 19.95 10.9086C19.95 8.25865 18.92 5.76865 17.05 3.89865ZM10.04 19.1386C8.55999 19.1386 7.10999 18.7386 5.83999 17.9886L5.53999 17.8086L2.41999 18.6286L3.24999 15.5886L3.04999 15.2786C2.22773 13.9656 1.79113 12.4479 1.78999 10.8986C1.78999 6.35865 5.48999 2.65865 10.03 2.65865C12.23 2.65865 14.3 3.51865 15.85 5.07865C16.6175 5.84261 17.2257 6.75131 17.6394 7.75207C18.0531 8.75283 18.264 9.82575 18.26 10.9086C18.28 15.4486 14.58 19.1386 10.04 19.1386ZM14.56 12.9786C14.31 12.8586 13.09 12.2586 12.87 12.1686C12.64 12.0886 12.48 12.0486 12.31 12.2886C12.14 12.5386 11.67 13.0986 11.53 13.2586C11.39 13.4286 11.24 13.4486 10.99 13.3186C10.74 13.1986 9.93999 12.9286 8.99999 12.0886C8.25999 11.4286 7.76999 10.6186 7.61999 10.3686C7.47999 10.1186 7.59999 9.98865 7.72999 9.85865C7.83999 9.74865 7.97999 9.56865 8.09999 9.42865C8.21999 9.28864 8.26999 9.17865 8.34999 9.01865C8.42999 8.84865 8.38999 8.70865 8.32999 8.58865C8.26999 8.46865 7.76999 7.24865 7.56999 6.74865C7.36999 6.26865 7.15999 6.32865 7.00999 6.31865H6.52999C6.35999 6.31865 6.09999 6.37865 5.86999 6.62865C5.64999 6.87865 5.00999 7.47865 5.00999 8.69865C5.00999 9.91865 5.89999 11.0986 6.01999 11.2586C6.13999 11.4286 7.76999 13.9286 10.25 14.9986C10.84 15.2586 11.3 15.4086 11.66 15.5186C12.25 15.7086 12.79 15.6786 13.22 15.6186C13.7 15.5486 14.69 15.0186 14.89 14.4386C15.1 13.8586 15.1 13.3686 15.03 13.2586C14.96 13.1486 14.81 13.0986 14.56 12.9786Z" fill="#24CC63"/>
</svg>
